<?xml version="1.0" encoding="UTF-8" standalone="no"?>
<!-- Generator: Adobe Illustrator 19.0.0, SVG Export Plug-In . SVG Version: 6.00 Build 0)  -->

<svg
   xmlns:dc="http://purl.org/dc/elements/1.1/"
   xmlns:cc="http://creativecommons.org/ns#"
   xmlns:rdf="http://www.w3.org/1999/02/22-rdf-syntax-ns#"
   xmlns:svg="http://www.w3.org/2000/svg"
   xmlns="http://www.w3.org/2000/svg"
   xmlns:sodipodi="http://sodipodi.sourceforge.net/DTD/sodipodi-0.dtd"
   xmlns:inkscape="http://www.inkscape.org/namespaces/inkscape"
   version="1.1"
   id="Capa_1"
   x="0px"
   y="0px"
   viewBox="0 0 416.392 416.392"
   style="enable-background:new 0 0 416.392 416.392;"
   xml:space="preserve"
   sodipodi:docname="exit.svg"
   inkscape:version="0.92.3 (2405546, 2018-03-11)"><metadata
   id="metadata43"><rdf:RDF><cc:Work
       rdf:about=""><dc:format>image/svg+xml</dc:format><dc:type
         rdf:resource="http://purl.org/dc/dcmitype/StillImage" /></cc:Work></rdf:RDF></metadata><defs
   id="defs41" /><sodipodi:namedview
   pagecolor="#ffffff"
   bordercolor="#666666"
   borderopacity="1"
   objecttolerance="10"
   gridtolerance="10"
   guidetolerance="10"
   inkscape:pageopacity="0"
   inkscape:pageshadow="2"
   inkscape:window-width="1282"
   inkscape:window-height="720"
   id="namedview39"
   showgrid="false"
   inkscape:zoom="0.56677362"
   inkscape:cx="208.196"
   inkscape:cy="208.196"
   inkscape:window-x="462"
   inkscape:window-y="154"
   inkscape:window-maximized="0"
   inkscape:current-layer="Capa_1" />
<g
   id="g6"
   style="fill:#4169e1;fill-opacity:1"
   transform="matrix(0.82605204,0,0,0.85169385,42.39035,28.230263)">
	<path
   style="fill:#4169e1;fill-opacity:1"
   d="m 361.273,187.559 c -8.882,0 -15.673,6.792 -15.673,15.673 V 385.044 L 31.608,384.522 32.13,70.53 h 181.812 c 8.882,0 15.673,-6.792 15.673,-15.673 0,-8.881 -6.792,-15.673 -15.673,-15.673 H 16.457 c -8.882,0 -15.673,6.792 -15.673,15.673 L 0.261,400.196 c 0,8.882 6.792,15.673 15.673,15.673 l 345.339,0.522 v 0 c 4.18,0 8.359,-1.567 10.971,-4.702 3.135,-3.135 4.702,-6.792 4.702,-10.971 V 203.233 c 10e-4,-8.882 -6.791,-15.674 -15.673,-15.674 z"
   id="path2"
   inkscape:connector-curvature="0" />
	<path
   style="fill:#4169e1;fill-opacity:1"
   d="m 415.608,13.061 c 0,-0.522 -0.522,-1.045 -0.522,-1.567 0,-0.522 -0.522,-1.045 -0.522,-1.567 0,-0.522 -0.522,-1.045 -1.045,-1.567 0,-0.522 -0.522,-0.522 -0.522,-1.045 -1.045,-1.567 -2.612,-3.135 -4.18,-4.18 -0.522,0 -0.522,-0.522 -1.045,-0.522 -0.522,-0.522 -1.045,-0.522 -1.567,-1.045 -0.522,0 -1.045,-0.522 -1.567,-0.522 -0.522,0 -1.045,-0.522 -1.567,-0.522 -1.045,0 -2.09,-0.522 -3.135,-0.522 H 287.608 c -8.882,0 -15.673,6.792 -15.673,15.673 0,8.881 6.792,15.673 15.673,15.673 h 75.233 L 187.82,206.89 c -6.269,6.269 -6.269,16.196 0,21.943 3.135,3.135 7.314,4.702 10.971,4.702 3.657,0 7.837,-1.567 10.971,-4.702 l 175.02,-175.02 v 75.755 c 0,8.882 6.792,15.673 15.673,15.673 8.881,0 15.673,-6.792 15.673,-15.673 V 16.196 c 0.003,-1.045 0.003,-2.09 -0.52,-3.135 z"
   id="path4"
   inkscape:connector-curvature="0" />
</g>
<g
   id="g8">
</g>
<g
   id="g10">
</g>
<g
   id="g12">
</g>
<g
   id="g14">
</g>
<g
   id="g16">
</g>
<g
   id="g18">
</g>
<g
   id="g20">
</g>
<g
   id="g22">
</g>
<g
   id="g24">
</g>
<g
   id="g26">
</g>
<g
   id="g28">
</g>
<g
   id="g30">
</g>
<g
   id="g32">
</g>
<g
   id="g34">
</g>
<g
   id="g36">
</g>
</svg>