<svg width="160" height="58" viewBox="0 0 160 58" fill="none" xmlns="http://www.w3.org/2000/svg">
<g clip-path="url(#clip0)">
<path d="M26.4 25.187V28.7851L12 48.7748H26.8V56.3708H0V53.1725L15.2 31.9835H1.2V25.187H26.4Z" fill="black"/>
<path d="M37.6001 43.5772C38.0001 47.5752 41.6001 50.3737 46.8001 50.3737C49.6001 50.3737 53.6001 49.1743 55.2001 47.5752L60.0001 52.3727C56.8001 55.9708 51.2001 57.57 46.4001 57.57C35.6001 57.57 29.2001 50.7735 29.2001 40.7787C29.2001 31.1837 35.6001 24.3872 46.0001 24.3872C56.4001 24.3872 63.2001 30.7839 62.0001 43.977H37.6001V43.5772ZM54.8001 37.1806C54.4001 33.1826 51.2001 31.1837 46.8001 31.1837C42.4001 31.1837 39.2001 33.1826 38.0001 37.1806H54.8001Z" fill="black"/>
<path d="M78 16.3916V25.187H86.8V31.9835H78V45.5764C78 48.375 79.6 49.9742 82 49.9742C83.2 49.9742 84.8 49.5744 85.6 49.1746L87.6 55.971C85.2 56.7706 83.6 57.1704 81.2 57.1704C74.4 57.5702 70 53.5723 70 45.5764V31.9835H64V25.187H70V17.1912L78 16.3916Z" fill="black"/>
<path d="M107.2 29.1851C97.1999 29.1851 90.7999 36.7811 90.7999 45.5765H98.3999C98.3999 40.779 101.2 36.3813 106.8 36.3813C112 36.3813 115.2 40.779 115.2 45.5765H123.2C123.6 36.3813 117.2 29.1851 107.2 29.1851Z" fill="black"/>
<path d="M152.4 56.7705V40.379C152.4 35.5815 149.6 31.9834 144.8 31.9834C140 31.9834 136.8 35.9813 136.8 40.7788V56.7705H129.2V25.1869H136L136.4 29.5846C139.6 26.3863 142.8 24.7871 146.8 24.7871C154.4 24.7871 160 30.3842 160 40.379V56.7705H152.4Z" fill="black"/>
<path d="M123.6 49.1743H90.7999V56.7704H123.6V49.1743Z" fill="#0041C4"/>
<path d="M123.6 16.3915C123.6 25.5867 117.6 32.783 107.2 32.783C96.7999 32.783 90.7999 25.5867 90.7999 16.3915C90.7999 7.59605 97.1999 0 107.2 0C117.2 0 123.6 7.59605 123.6 16.3915ZM98.7999 16.3915C98.7999 21.189 101.6 25.5867 107.2 25.5867C112.8 25.5867 115.6 21.189 115.6 16.3915C115.6 11.594 112.4 7.19626 107.2 7.19626C101.6 7.19626 98.7999 11.594 98.7999 16.3915Z" fill="black"/>
<path d="M107.2 20.7891C109.63 20.7891 111.6 18.8202 111.6 16.3914C111.6 13.9626 109.63 11.9937 107.2 11.9937C104.77 11.9937 102.8 13.9626 102.8 16.3914C102.8 18.8202 104.77 20.7891 107.2 20.7891Z" fill="#0041C4"/>
<path d="M13.1998 20.7891C15.6299 20.7891 17.5998 18.8202 17.5998 16.3914C17.5998 13.9626 15.6299 11.9937 13.1998 11.9937C10.7698 11.9937 8.79984 13.9626 8.79984 16.3914C8.79984 18.8202 10.7698 20.7891 13.1998 20.7891Z" fill="black"/>
</g>
<defs>
<clipPath id="clip0">
<rect width="160" height="57.5701" fill="white"/>
</clipPath>
</defs>
</svg>
